<?xml version="1.0" encoding="UTF-8"?>
<!DOCTYPE svg PUBLIC "-//W3C//DTD SVG 1.1//EN" "http://www.w3.org/Graphics/SVG/1.1/DTD/svg11.dtd">
<!-- Creator: CorelDRAW -->
<svg xmlns="http://www.w3.org/2000/svg" xml:space="preserve" width="6.82666in" height="6.82666in" style="shape-rendering:geometricPrecision; text-rendering:geometricPrecision; image-rendering:optimizeQuality; fill-rule:evenodd; clip-rule:evenodd"
viewBox="0 0 6.82666 6.82666"
 xmlns:xlink="http://www.w3.org/1999/xlink">
 <defs>
  <style type="text/css">
   <![CDATA[
    .fil0 {fill:#FF5722}
    .fil2 {fill:#FFFFFE}
    .fil1 {fill:#FFFFFE;fill-rule:nonzero}
   ]]>
  </style>
 </defs>
 <g id="Layer_x0020_1">
  <metadata id="CorelCorpID_0Corel-Layer"/>
  <rect class="fil0" width="6.82666" height="6.82666" rx="0.853335" ry="0.853335"/>
  <g id="_213208168">
   <path id="_213208864" class="fil1" d="M0.959571 1.59953l4.90667 0c0.0589094,0 0.106669,0.0477598 0.106669,0.106669l0 2.9176c0,0.0589094 -0.0477598,0.106669 -0.106669,0.106669l-4.90667 0c-0.0589094,0 -0.106669,-0.0477598 -0.106669,-0.106669l0 -2.9176c0,-0.0589094 0.0477598,-0.106669 0.106669,-0.106669zm4.69062 0.338339l-4.47718 0 0 2.23551 4.47718 0 0 -2.23551z"/>
   <path id="_213207832" class="fil1" d="M3.83948 4.73046c0,-0.0589094 -0.190996,-0.106669 -0.426579,-0.106669 -0.235583,0 -0.426579,0.0477598 -0.426579,0.106669l0 0.64c0,0.0589094 0.190996,0.106669 0.426579,0.106669 0.235583,0 0.426579,-0.0477598 0.426579,-0.106669l0 -0.64z"/>
   <path id="_213207616" class="fil1" d="M2.31052 5.37045c0,0.0589094 0.0548425,0.106669 0.122488,0.106669l1.95979 0c0.0676457,0 0.122488,-0.0477598 0.122488,-0.106669 0,-0.33689 -2.20477,-0.344094 -2.20477,0z"/>
  </g>
  <path class="fil1" d="M1.65481 2.2373l0.122803 0 0 0.404984c0,0.052874 -0.00454331,0.093685 -0.0133465,0.122134 -0.0119252,0.0372362 -0.0335039,0.0671732 -0.064878,0.0896654 -0.031374,0.0226378 -0.072689,0.033811 -0.123941,0.033811 -0.060189,0 -0.106472,-0.0175748 -0.13898,-0.0530236 -0.0323701,-0.0353031 -0.0488386,-0.0871339 -0.0489803,-0.1555l0.115988 -0.014c0.00142126,0.0366417 0.0065315,0.0625591 0.0153307,0.077748 0.0133465,0.022937 0.0336496,0.0344055 0.0607638,0.0344055 0.0273976,0 0.0468504,-0.00819291 0.0582047,-0.0247205 0.0113583,-0.0163858 0.0170354,-0.0504961 0.0170354,-0.102327l0 -0.413177zm0.228854 0.323807c0,-0.0652362 0.00922441,-0.119898 0.0278228,-0.164138 0.0139094,-0.0324646 0.0327953,-0.061811 0.0567874,-0.0877244 0.0239921,-0.0257717 0.0502559,-0.0449803 0.0787913,-0.0574921 0.0380472,-0.0169843 0.0817717,-0.0253228 0.131461,-0.0253228 0.0898661,0 0.161701,0.0291929 0.21565,0.0877283 0.0539449,0.0583858 0.0809213,0.139709 0.0809213,0.243823 0,0.103366 -0.0268346,0.184094 -0.0803543,0.242484 -0.0535197,0.0582362 -0.125075,0.0874291 -0.214512,0.0874291 -0.0907165,0 -0.162839,-0.0290472 -0.216362,-0.0869843 -0.0535157,-0.0580866 -0.0802047,-0.138071 -0.0802047,-0.239803zm0.126776 -0.0043189c0,0.0723898 0.0160394,0.12735 0.0478386,0.164736 0.0319449,0.0373858 0.0724094,0.056 0.121524,0.056 0.0489803,0 0.0892992,-0.0184685 0.120815,-0.0557047 0.031378,-0.0370866 0.0471378,-0.0926417 0.0471378,-0.166819 0,-0.0732835 -0.0153386,-0.127945 -0.0458622,-0.164138 -0.0306614,-0.0360433 -0.0714055,-0.0540669 -0.122091,-0.0540669 -0.0508189,0 -0.0917087,0.0183228 -0.122799,0.054811 -0.0309488,0.0364921 -0.046563,0.0914567 -0.046563,0.165181zm0.561051 -0.319488l0.24376 0c0.0482677,0 0.0843268,0.00209055 0.108039,0.00640551 0.0237087,0.00417323 0.0448583,0.0129606 0.0635984,0.0263661 0.0187362,0.0134016 0.0342165,0.0311299 0.0467087,0.0534724 0.0124921,0.022189 0.0187362,0.0472126 0.0187362,0.0747677 0,0.029937 -0.00766535,0.0574961 -0.023,0.0825157 -0.0154724,0.0250236 -0.0363425,0.0437913 -0.0626024,0.0563031 0.0370512,0.0113189 0.0657283,0.0306811 0.0856024,0.0579409 0.0200157,0.0274055 0.0299567,0.0595748 0.0299567,0.0965118 0,0.0290433 -0.00638583,0.0573465 -0.0193071,0.0848976 -0.0129213,0.0274094 -0.0305236,0.0494528 -0.052815,0.0658346 -0.0222874,0.0163858 -0.0498307,0.0265118 -0.082622,0.0303858 -0.0204449,0.00223228 -0.0699921,0.00372441 -0.1485,0.0043189l-0.207555 0 0 -0.63972zm0.123228 0.1065l0 0.147898 0.0806378 0c0.0479843,0 0.0777992,-0.000740157 0.089437,-0.00223228 0.0210118,-0.0025315 0.037626,-0.0101299 0.049689,-0.0227874 0.0120669,-0.0126575 0.0180315,-0.0293386 0.0180315,-0.0500433 0,-0.019815 -0.00511024,-0.0358976 -0.0154724,-0.0482638 -0.0105079,-0.0123622 -0.0259803,-0.0198071 -0.0464291,-0.0223346 -0.0122047,-0.00149213 -0.0472717,-0.00223622 -0.105197,-0.00223622l-0.0706969 0zm0 0.254398l0 0.170988 0.113858 0c0.0444331,0 0.0725433,-0.00119291 0.0844685,-0.00387008 0.0183189,-0.00342913 0.0332205,-0.0120709 0.0447205,-0.0254724 0.0115,-0.0135551 0.0173228,-0.0317283 0.0173228,-0.0543661 0,-0.0192126 -0.00454331,-0.0354488 -0.0133504,-0.0488504 -0.00894488,-0.0134094 -0.0217165,-0.0232402 -0.0384724,-0.0293465 -0.016748,-0.0061063 -0.0532362,-0.00908268 -0.109169,-0.00908268l-0.099378 0z"/>
  <polygon class="fil1" points="3.30667,2.77082 5.44001,2.77082 5.44001,2.87749 3.30667,2.87749 "/>
  <polygon class="fil1" points="3.3004,2.23868 5.43374,2.23868 5.43374,2.34535 3.3004,2.34535 "/>
  <path class="fil2" d="M1.39207 3.10385l4.04168 0 0 0.554697 -0.508118 -0.133213 0.0822126 0.332685 -3.61577 0 0 -0.754169zm1.08786 0.61252l-0.103492 0 -0.0411102 -0.107 -0.18824 0 -0.0388071 0.107 -0.100862 0 0.183413 -0.47087 0.100531 0 0.188567 0.47087zm-0.175079 -0.186264l-0.0649055 -0.174756 -0.0635866 0.174756 0.128492 0zm0.394925 0.186264l0 -0.47087 0.152496 0c0.0577795,0 0.0954921,0.00241339 0.113031,0.00712598 0.0269685,0.00701575 0.0496654,0.0223661 0.0678622,0.0460472 0.0182008,0.0236811 0.0272992,0.0542677 0.0272992,0.0916535 0,0.0289409 -0.00526378,0.0532795 -0.0157874,0.0729016 -0.0105236,0.0197362 -0.0237913,0.0351929 -0.0400157,0.0464843 -0.0161142,0.011185 -0.0325591,0.0186378 -0.0492244,0.0222559 -0.0226929,0.00449606 -0.0555827,0.00679921 -0.0986693,0.00679921l-0.0619409 0 0 0.177602 -0.0950512 0zm0.0950512 -0.391165l0 0.133531 0.0519646 0c0.0374961,0 0.0625984,-0.00241339 0.0752087,-0.00734646 0.0126063,-0.00493307 0.0224724,-0.0126063 0.0297087,-0.0231339 0.00712598,-0.0105236 0.0107441,-0.0226929 0.0107441,-0.0366142 0,-0.0171024 -0.00504331,-0.031248 -0.0151299,-0.0424291 -0.00997638,-0.0110709 -0.0228031,-0.0180906 -0.0381496,-0.0208307 -0.0114016,-0.00219291 -0.0342047,-0.00317717 -0.0684094,-0.00317717l-0.045937 0zm0.51311 0.391165l0 -0.47087 0.152496 0c0.0577795,0 0.0954921,0.00241339 0.113031,0.00712598 0.0269685,0.00701575 0.0496654,0.0223661 0.0678622,0.0460472 0.0182008,0.0236811 0.0272992,0.0542677 0.0272992,0.0916535 0,0.0289409 -0.00526378,0.0532795 -0.0157874,0.0729016 -0.0105236,0.0197362 -0.0237913,0.0351929 -0.0400157,0.0464843 -0.0161142,0.011185 -0.0325591,0.0186378 -0.0492244,0.0222559 -0.0226929,0.00449606 -0.0555827,0.00679921 -0.0986693,0.00679921l-0.0619409 0 0 0.177602 -0.0950512 0zm0.0950512 -0.391165l0 0.133531 0.0519646 0c0.0374961,0 0.0625984,-0.00241339 0.0752087,-0.00734646 0.0126063,-0.00493307 0.0224724,-0.0126063 0.0297087,-0.0231339 0.00712598,-0.0105236 0.0107441,-0.0226929 0.0107441,-0.0366142 0,-0.0171024 -0.00504331,-0.031248 -0.0151299,-0.0424291 -0.00997638,-0.0110709 -0.0228031,-0.0180906 -0.0381496,-0.0208307 -0.0114016,-0.00219291 -0.0342047,-0.00317717 -0.0684094,-0.00317717l-0.045937 0zm0.51563 0.391165l0 -0.467031 0.0950512 0 0 0.387657 0.236366 0 0 0.079374 -0.331417 0zm0.631843 0l0 -0.198213 -0.172453 -0.272657 0.111496 0 0.110839 0.186264 0.108535 -0.186264 0.109524 0 -0.17311 0.273315 0 0.197555 -0.0948307 0z"/>
  <polygon class="fil1" points="5.32206,4.02228 5.15153,3.84893 5.08696,3.95592 4.99893,3.59969 5.35092,3.69196 5.24958,3.75513 5.42011,3.92847 "/>
 </g>
</svg>
