<svg xmlns="http://www.w3.org/2000/svg" width="47.937" height="48.001" viewBox="0 0 47.937 48.001">
  <g>
    <path d="M43.293,0H12.47A4.647,4.647,0,0,0,7.828,4.641V7.669H.727A.727.727,0,0,0,0,8.4V43.36A4.647,4.647,0,0,0,4.642,48H35.466a4.647,4.647,0,0,0,4.641-4.642V41.052h7.1a.728.728,0,0,0,.728-.728V4.64A4.651,4.651,0,0,0,43.293,0ZM1.454,9.123H30.823v5.333H1.454ZM4.64,46.545a3.191,3.191,0,0,1-3.187-3.188V15.912H30.822V43.358a4.626,4.626,0,0,0,1.27,3.187ZM38.651,4.64V43.358a3.187,3.187,0,0,1-6.374,0V8.4a.729.729,0,0,0-.727-.728H9.283V4.64a3.192,3.192,0,0,1,3.188-3.187H39.922A4.629,4.629,0,0,0,38.651,4.64ZM46.48,39.6H40.1V4.64a3.188,3.188,0,0,1,6.375,0Z" fill="#1a171b"/>
    <path d="M25.835,20.275H6.441A.728.728,0,0,0,5.714,21v9.7a.729.729,0,0,0,.727.728H25.835a.728.728,0,0,0,.728-.728V21A.728.728,0,0,0,25.835,20.275Zm-.727,9.7H7.169V21.73H25.108Z" fill="#1a171b"/>
    <path d="M25.835,35.793H21.164a.728.728,0,0,0,0,1.456h4.671a.728.728,0,1,0,0-1.456Z" fill="#1a171b"/>
    <path d="M6.441,37.248H17.285a.728.728,0,0,0,0-1.456H6.441a.728.728,0,0,0,0,1.456Z" fill="#1a171b"/>
    <path d="M25.835,41.612H15.588a.728.728,0,0,0,0,1.455H25.835a.728.728,0,1,0,0-1.455Z" fill="#1a171b"/>
    <path d="M11.709,41.612H6.441a.728.728,0,0,0,0,1.455h5.268a.728.728,0,1,0,0-1.455Z" fill="#1a171b"/>
    <path d="M27.466,11.273a.735.735,0,0,0-.2.515.731.731,0,0,0,.727.728A.741.741,0,0,0,28.5,12.3a.722.722,0,0,0,.213-.513.75.75,0,0,0-.213-.515A.763.763,0,0,0,27.466,11.273Z" fill="#1a171b"/>
    <path d="M23.626,11.06a.728.728,0,1,0,.727.728A.727.727,0,0,0,23.626,11.06Z" fill="#1a171b"/>
    <path d="M18.739,11.273a.735.735,0,0,0-.2.515.723.723,0,0,0,.213.513.706.706,0,0,0,.514.215.76.76,0,0,0,.514-.215.715.715,0,0,0-.01-1.028A.75.75,0,0,0,18.739,11.273Z" fill="#1a171b"/>
  </g>
</svg>
