<svg xmlns="http://www.w3.org/2000/svg" viewBox="0 0 64 64"><defs><style>.cls-1{fill:#8d8d8d;}.cls-2{fill:#5b97c4;}.cls-3{fill:#8cbce7;}.cls-4{fill:silver;}.cls-5{fill:#f79341;}.cls-6{fill:#ffb248;}.cls-7{fill:#2b2b4c;}</style></defs><title>travel Insurance</title><g id="travel_Insurance" data-name="travel Insurance"><path class="cls-1" d="M39,16H25a1,1,0,0,1-1-1V10.67A3.68,3.68,0,0,1,27.67,7h8.66A3.68,3.68,0,0,1,40,10.67V15A1,1,0,0,1,39,16ZM26,14H38V10.67A1.67,1.67,0,0,0,36.33,9H27.67A1.67,1.67,0,0,0,26,10.67Z"/><path class="cls-2" d="M15,15V50H12.38A4.37,4.37,0,0,1,8,45.9a2.62,2.62,0,0,1,0-.28V19.38A4.38,4.38,0,0,1,12,15l.38,0Z"/><path class="cls-3" d="M12,15V41a5,5,0,0,1-4,4.9,2.62,2.62,0,0,1,0-.28V19.38A4.38,4.38,0,0,1,12,15Z"/><path class="cls-2" d="M44,15V33.85l-.9.26-.1,0L40,35l-2,.57v8.58q0,.38,0,.75a11.9,11.9,0,0,0,.6,3.11,11.1,11.1,0,0,0,.87,2H20V15Z"/><path class="cls-3" d="M20,15H41a0,0,0,0,1,0,0V26A21,21,0,0,1,20,47h0a0,0,0,0,1,0,0V15A0,0,0,0,1,20,15Z"/><path class="cls-2" d="M56,19.38V35.56l-1.45-.41-3.55-1-2-.57V15h2.64A4.37,4.37,0,0,1,56,19.38Z"/><path class="cls-3" d="M53,15.22V28a4,4,0,0,1-4,4V15h2.64A4.35,4.35,0,0,1,53,15.22Z"/><path class="cls-4" d="M49,15V33.57l-.87-.25L47,33l-1,.28-2,.57V15a1,1,0,0,1,1-1h3A1,1,0,0,1,49,15Z"/><path class="cls-5" d="M56,35.56v8.58a11.78,11.78,0,0,1-.54,3.57A12.11,12.11,0,0,1,53,52.22c-.23.27-.48.53-.74.78A12.52,12.52,0,0,1,47,56a12.37,12.37,0,0,1-4.06-2l-.28-.21a10.77,10.77,0,0,1-.88-.77,12.51,12.51,0,0,1-2.21-2.86A.91.91,0,0,1,39.5,50a11.1,11.1,0,0,1-.87-2,11.9,11.9,0,0,1-.6-3.11q0-.37,0-.75V35.56L40,35l3-.85.1,0,.9-.26,2-.57L47,33l1.13.32.87.25,2,.57,3.55,1Z"/><path class="cls-6" d="M53,34.71v6.43A12.34,12.34,0,0,1,44,53a12.39,12.39,0,0,1-3.77-1.8A12.31,12.31,0,0,1,38,44.14V35.56L47,33Z"/><rect class="cls-4" x="15" y="14" width="5" height="37" rx="1" ry="1"/><path class="cls-7" d="M15,51H12.38A5.38,5.38,0,0,1,7,45.62V27a1,1,0,0,1,2,0V45.62A3.39,3.39,0,0,0,12.38,49H14V16H12.38A3.39,3.39,0,0,0,9,19.38V23a1,1,0,0,1-2,0V19.38A5.38,5.38,0,0,1,12.38,14H15a1,1,0,0,1,1,1V50A1,1,0,0,1,15,51Z"/><path class="cls-7" d="M39.5,51H20a1,1,0,0,1-1-1V47a1,1,0,0,1,2,0v2H37.92c-.09-.24-.17-.47-.24-.7A12.5,12.5,0,0,1,37,44.94c0-.25,0-.52,0-.8V35.56a1,1,0,0,1,.73-1L43,33.1V16H21V43a1,1,0,0,1-2,0V15a1,1,0,0,1,1-1H44a1,1,0,0,1,1,1V33.85a1,1,0,0,1-.72,1L39,36.31v7.83c0,.22,0,.44,0,.67a10.8,10.8,0,0,0,.55,2.87,10.27,10.27,0,0,0,.8,1.84,1,1,0,0,1,0,1A1,1,0,0,1,39.5,51Z"/><path class="cls-7" d="M56,36.56a.84.84,0,0,1-.27,0l-7-2a1,1,0,0,1-.73-1V15a1,1,0,0,1,1-1h1a1,1,0,0,1,0,2V32.82l5,1.42V19.38a3.32,3.32,0,0,0-1.62-2.88,1,1,0,0,1,1-1.72,5.36,5.36,0,0,1,2.6,4.6V35.56a1,1,0,0,1-.4.8A1,1,0,0,1,56,36.56Z"/><path class="cls-7" d="M44,34.85a1,1,0,0,1-1-1V15a2,2,0,0,1,2-2h3a2,2,0,0,1,2,2V33.57a1,1,0,0,1-.4.8,1,1,0,0,1-.88.16L47,34l-2.73.77A.84.84,0,0,1,44,34.85ZM45,15V32.53L46.73,32a1,1,0,0,1,.54,0l.73.2V15Zm3,0h0Z"/><path class="cls-7" d="M46,48a1,1,0,0,1-.71-.29l-2.5-2.5a1,1,0,0,1,1.42-1.42L46,45.59l4.29-4.3a1,1,0,0,1,1.42,1.42l-5,5A1,1,0,0,1,46,48Z"/><path class="cls-7" d="M47,57a.9.9,0,0,1-.28,0,13.33,13.33,0,0,1-4.38-2.18l-.3-.22a11,11,0,0,1-.95-.84,13.25,13.25,0,0,1-2.39-3.09.93.93,0,0,1-.1-.2,11,11,0,0,1-.92-2.13A12.5,12.5,0,0,1,37,44.94c0-.25,0-.52,0-.8V35.56a1,1,0,0,1,.73-1l9-2.56a1,1,0,0,1,.54,0l9,2.56a1,1,0,0,1,.73,1V38a1,1,0,0,1-2,0V36.32L47,34l-8,2.27v7.83c0,.22,0,.44,0,.67a10.8,10.8,0,0,0,.55,2.87,10.27,10.27,0,0,0,.8,1.84l0,.11a11.77,11.77,0,0,0,2,2.65c.26.24.52.48.8.7l.24.18A11.7,11.7,0,0,0,47,55a11.65,11.65,0,0,0,4.54-2.68c.23-.23.46-.46.67-.71a11,11,0,0,0,2.29-4.15,10.81,10.81,0,0,0,.5-3.28V42a1,1,0,0,1,2,0v2.14A12.68,12.68,0,0,1,56.41,48a13.1,13.1,0,0,1-2.69,4.87,10.41,10.41,0,0,1-.8.84A13.6,13.6,0,0,1,47.28,57,.9.9,0,0,1,47,57Z"/><path class="cls-7" d="M19,52H16a2,2,0,0,1-2-2V15a2,2,0,0,1,2-2h3a2,2,0,0,1,2,2V43a1,1,0,0,1-2,0V15H16V50h3V47a1,1,0,0,1,2,0v3A2,2,0,0,1,19,52Z"/><path class="cls-7" d="M16,52H15a1,1,0,0,1-1-1V50a1,1,0,0,1,2,0,1,1,0,0,1,0,2Z"/><path class="cls-7" d="M20,52H19a1,1,0,0,1,0-2,1,1,0,0,1,2,0v1A1,1,0,0,1,20,52Z"/></g></svg>